#!OML:ASF F:\VICON\USERDATA\INSTALL\rory3\rory3.ASF
:FULLY-SPECIFIED
:DEGREES
117
root -0.04837023113948655 17.64264609086915 28.379636131359753 2.204127876455383 -0.35807446376859775 -2.8050849865256913
lfemur -15.816722589149089 1.5491101022715856 -22.485535891971754
ltibia 38.57653695456956
lfoot -1.1974170704317133 -6.622630398111178
ltoes -15.242802237038426
rfemur -20.966298609708932 1.1934327673198128 28.0662694954096
rtibia 104.40078979144155
rfoot 2.5984021294322366 -9.015782636241234
rtoes -7.708003534070534
lowerback 14.725691525336474 2.0945895650747 1.7066738398780488
upperback -1.4087149855580132 3.166392687776392 0.49827166707006
thorax -8.696175790166949 1.5279206765115996 -1.2406730289135266
lowerneck -20.106416168359882 -4.815055078027696 -1.9486237031685336
upperneck 13.248027122531738 -6.696230334778663 3.0842853854594177
head 7.5134293312669165 -2.9990781962232402 0.6238258100266301
lclavicle 7.933867048861781e-17 -3.510693723871564e-16
lhumerus -41.841863630188804 -19.57894807094803 97.99766836758971
lradius 103.69679012947906
lwrist 32.90712069669406
lhand -24.361676517154606 1.9939162002092576
lfingers 7.12502
lthumb 2.0964316149273436 31.5547140292968
rclavicle 7.933867063043537e-17 -3.5106937228248765e-16
rhumerus -52.93421326764932 7.06889182551478 -94.49837293771628
rradius 109.3228134399257
rwrist -8.640023470358415
rhand -17.840146653914566 40.2122904316184
rfingers 7.12502
rthumb 8.69760967122952 9.722666410038189
118
root -0.0698426653441063 17.567551108979472 28.360324396431288 2.000602391708325 -0.33946747857891246 -2.7035765690626565
lfemur -15.118572465396795 1.6658436267166081 -22.576456271865023
ltibia 38.47168999749148
lfoot -1.0034795035621233 -6.8696004898166025
ltoes -15.275241476798538
rfemur -21.904973024142123 0.9783131738468684 27.898465357869192
rtibia 104.83884411984252
rfoot 2.1979429519157354 -9.082711915291227
rtoes -5.907772517264164
lowerback 14.908350669198775 2.0880685708644906 1.4918448545802891
upperback -1.277119119400595 3.1076845586676427 0.42587788609797306
thorax -8.76326578491872 1.4929552198499736 -1.1649363556531303
lowerneck -20.143292689156482 -4.808497466473492 -1.9203731920106066
upperneck 13.068734975779972 -6.690931013332948 3.1664593355473576
head 7.45820127554263 -2.985443832150803 0.6534328498511892
lclavicle 7.933867048719757e-17 -3.510693723882398e-16
lhumerus -41.52614511801045 -19.65227102592589 98.02203342168059
lradius 104.16611444855349
lwrist 32.88232356477364
lhand -24.483213388943263 2.1055925950948486
lfingers 7.12502
lthumb 2.0444994387309445 31.63418417271452
rclavicle 7.933867063507959e-17 -3.510693722788962e-16
rhumerus -52.74842735925066 7.025087014437934 -94.66282835756087
rradius 109.31781724939377
rwrist -8.41744015773086
rhand -17.85974061338926 39.931077702111025
rfingers 7.12502
rthumb 8.77580841476766 9.4157978183198
119
root -0.08656369842459674 17.501008080591582 28.444328268392937 1.8444832611657365 -0.3277542768137187 -2.6020220698155203
lfemur -14.484596344106167 1.7944263664302866 -22.65657454301112
ltibia 38.70278717268841
lfoot -1.344973800856982 -7.293088698763705
ltoes -16.076412333690392
rfemur -22.78579387064471 0.7933588451565018 27.7670439274967
rtibia 105.15288334391076
rfoot 1.9259490912775403 -8.92154200756686
rtoes -4.547548742036271
lowerback 15.070492574681532 2.0839290244968574 1.3049967442441779
upperback -1.1643648684569812 3.055618409049119 0.35627752288279235
thorax -8.845886309805863 1.4647476501267847 -1.1116251019553862
lowerneck -20.18797673857067 -4.79806995387006 -1.8806909170632
upperneck 12.931834798436757 -6.690747225552501 3.237235440252345
head 7.422243049172257 -2.975772893453343 0.6763563161862006
lclavicle 7.933867048349935e-17 -3.510693723910161e-16
lhumerus -40.99857107854736 -19.641717034683865 97.93923868221918
lradius 104.64470313835743
lwrist 32.86774015802333
lhand -24.41745940981179 2.4535943949158714
lfingers 7.12502
lthumb 2.041119096965005 31.815814591718976
rclavicle 7.933867063991682e-17 -3.5106937227504795e-16
rhumerus -52.56840686965816 6.980432100255667 -94.84631307734763
rradius 109.30893162548682
rwrist -8.292828912615814
rhand -17.816616396946788 39.702134977093706
rfingers 7.12502
rthumb 8.901151999822934 9.132008667472208
120
root -0.10577797275860208 17.454458904201775 28.50201332166393 1.7587531255892772 -0.3216817338550342 -2.563432361289594
lfemur -13.973667398400165 1.9026736031403066 -22.62753188997751
ltibia 39.24589457411207
lfoot -1.3549224315147579 -7.298929265000156
ltoes -14.888865367829396
rfemur -23.574182710625195 0.6529210567352015 27.7208000909697
rtibia 105.23642291281882
rfoot 1.7187122765888319 -8.692226464080303
rtoes -3.66203048634398
lowerback 15.219501770252009 2.077558234137851 1.1672805606714072
upperback -1.0618209403672147 3.0023013291545997 0.3014378903964685
thorax -8.951814804940277 1.4359498154000254 -1.0579402204587725
lowerneck -20.286195598274293 -4.78879939956051 -1.8291527819020152
upperneck 12.833921435308092 -6.690230908388443 3.3029459148805236
head 7.406064549462263 -2.964539677605769 0.6940402034014967
lclavicle 7.933867048038587e-17 -3.510693723933223e-16
lhumerus -40.60743491620577 -19.62670827366596 97.91097413312671
lradius 105.20547208560659
lwrist 32.81540255428323
lhand -24.537976133176628 2.4853981421049136
lfingers 7.12502
lthumb 1.9170898640643679 31.897537098332414
rclavicle 7.933867064726329e-17 -3.5106937226924637e-16
rhumerus -52.339139068882766 6.980154402860144 -95.02681496917786
rradius 109.28285978285406
rwrist -8.163275809842222
rhand -17.85251775144356 39.36420520292704
rfingers 7.12502
rthumb 9.002277988663527 8.855080988818674
121
root -0.11971685666813768 17.3874282635599 28.664780819918526 1.66602292493126 -0.3070280989348324 -2.476748655958139
lfemur -13.499236345642007 2.0204020713599333 -22.653887888817156
ltibia 40.04631116254884
lfoot -2.617853871125727 -7.601001717363903
ltoes -14.952367716292287
rfemur -24.350253242784877 0.5080890113560509 27.616348149049585
rtibia 105.36964335818067
rfoot 1.412328845142154 -8.519172792104499
rtoes -2.1682942528452083
lowerback 15.357163521234586 2.068757865617443 0.997509711826187
upperback -0.9669837873650617 2.952348912227417 0.24578674397798084
thorax -9.069109682814224 1.4122807471343046 -1.006517656617998
lowerneck -20.374989356933256 -4.771938889034606 -1.7766291795363698
upperneck 12.759475406314355 -6.682100494096752 3.3632460221281435
head 7.405842405582535 -2.9500707736335823 0.7099775969977316
lclavicle 7.933867047541498e-17 -3.510693723971665e-16
lhumerus -40.39540772919145 -19.673046995000988 97.86636088091275
lradius 105.8222381609934
lwrist 32.81672763403461
lhand -24.55153980334988 2.7324625896873185
lfingers 7.12502
lthumb 1.6738295694666632 31.81654285343223
rclavicle 7.933867065316086e-17 -3.5106937226468917e-16
rhumerus -52.081162124243825 7.018618017290659 -95.21093925445064
rradius 109.24587193944909
rwrist -8.10135456234739
rhand -17.770627105014643 39.15712925314606
rfingers 7.12502
rthumb 9.093097715231744 8.63635997998959
